<svg width="69" height="72" viewBox="0 0 69 72" fill="none" xmlns="http://www.w3.org/2000/svg">
<g clip-path="url(#clip0_964_17605)">
<path d="M27.8888 42C35.4413 42 41.5832 35.721 41.5832 28C41.5832 20.279 35.4413 14 27.8888 14C20.3363 14 14.1943 20.279 14.1943 28C14.1943 35.721 20.3363 42 27.8888 42ZM27.8888 21C31.665 21 34.736 24.1395 34.736 28C34.736 31.8605 31.665 35 27.8888 35C24.1125 35 21.0416 31.8605 21.0416 28C21.0416 24.1395 24.1125 21 27.8888 21Z" fill="white"/>
<path d="M25.9379 70.3403C26.5073 70.7693 27.1896 71 27.8893 71C28.5891 71 29.2713 70.7693 29.8408 70.3403C30.8636 69.577 54.9033 51.2624 54.8057 28.4002C54.8057 12.7411 42.7303 0 27.8893 0C13.0483 0 0.972952 12.7411 0.972952 28.3825C0.875381 51.2624 24.9151 69.577 25.9379 70.3403ZM27.8893 7.10006C39.0226 7.10006 48.0766 16.6532 48.0766 28.418C48.1473 44.173 33.313 58.3199 27.8893 62.9598C22.469 58.3163 7.63139 44.1659 7.70204 28.4002C7.70204 16.6532 16.756 7.10006 27.8893 7.10006Z" fill="white"/>
</g>
<defs>
<clipPath id="clip0_964_17605">
<rect width="68" height="72" fill="white" transform="translate(0.5)"/>
</clipPath>
</defs>
</svg>
